<svg width="833" height="641" viewBox="0 0 833 641" fill="none" xmlns="http://www.w3.org/2000/svg">
<rect y="0.00469971" width="833" height="640" fill="#F8F3EF"/>
<path d="M713.944 569.389C710.531 569.389 707.373 568.834 704.472 567.725C701.613 566.573 699.117 564.973 696.984 562.925C694.893 560.877 693.251 558.466 692.056 555.693C690.904 552.919 690.328 549.89 690.328 546.605C690.328 543.319 690.904 540.29 692.056 537.517C693.251 534.743 694.915 532.333 697.048 530.285C699.181 528.237 701.677 526.658 704.536 525.549C707.437 524.397 710.595 523.821 714.008 523.821C717.421 523.821 720.536 524.354 723.352 525.421C726.211 526.487 728.643 528.109 730.648 530.285L727.704 533.293C725.827 531.415 723.757 530.071 721.496 529.261C719.235 528.45 716.803 528.045 714.2 528.045C711.427 528.045 708.867 528.514 706.52 529.453C704.216 530.349 702.189 531.65 700.44 533.357C698.733 535.021 697.389 536.983 696.408 539.245C695.469 541.463 695 543.917 695 546.605C695 549.25 695.469 551.703 696.408 553.965C697.389 556.226 698.733 558.21 700.44 559.917C702.189 561.581 704.216 562.882 706.52 563.821C708.867 564.717 711.405 565.165 714.136 565.165C716.696 565.165 719.107 564.781 721.368 564.013C723.672 563.245 725.784 561.943 727.704 560.109L730.392 563.693C728.259 565.57 725.763 566.999 722.904 567.981C720.045 568.919 717.059 569.389 713.944 569.389ZM725.848 563.117V546.605H730.392V563.693L725.848 563.117Z" fill="#1C1616"/>
<path d="M504.52 544.237H528.2V548.269H504.52V544.237ZM505.032 564.909H531.976V569.005H500.296V524.205H531.016V528.301H505.032V564.909Z" fill="#1C1616"/>
<path d="M300.296 569.005V524.205H318.536C323.315 524.205 327.496 525.165 331.08 527.085C334.707 528.962 337.523 531.586 339.528 534.957C341.533 538.327 342.536 542.21 342.536 546.605C342.536 550.999 341.533 554.882 339.528 558.253C337.523 561.623 334.707 564.269 331.08 566.189C327.496 568.066 323.315 569.005 318.536 569.005H300.296ZM305.032 564.909H318.28C322.248 564.909 325.683 564.141 328.584 562.605C331.528 561.026 333.811 558.871 335.432 556.141C337.053 553.367 337.864 550.189 337.864 546.605C337.864 542.978 337.053 539.799 335.432 537.069C333.811 534.338 331.528 532.205 328.584 530.669C325.683 529.09 322.248 528.301 318.28 528.301H305.032V564.909Z" fill="#1C1616"/>
<path d="M82.128 569.005L102.608 524.205H107.28L127.76 569.005H122.768L103.952 526.957H105.872L87.056 569.005H82.128ZM90.192 557.037L91.6 553.197H117.648L119.056 557.037H90.192Z" fill="#1C1616"/>
<g filter="url(#filter0_d_1_42)">
<rect x="559" y="0.00469971" width="128" height="466" rx="1" fill="#1C1616"/>
</g>
<g filter="url(#filter1_d_1_42)">
<rect x="154" y="0.00469971" width="128" height="466" rx="1" fill="#1C1616"/>
</g>
<line x1="421.5" y1="0.00235596" x2="422.5" y2="640.002" stroke="white" stroke-width="3"/>
<line x1="421.5" y1="0.00235596" x2="422.5" y2="640.002" stroke="#1C1616" stroke-width="3"/>
<path d="M215.5 455.005V641.005" stroke="#1C1616" stroke-width="3"/>
<line x1="624.5" y1="455.005" x2="624.5" y2="640.005" stroke="white" stroke-width="3"/>
<line x1="624.5" y1="455.005" x2="624.5" y2="640.005" stroke="#1C1616" stroke-width="3"/>
<path d="M614.52 372.901H638.2V376.997H614.52V372.901ZM615.032 396.005H610.296V351.205H641.016V355.301H615.032V396.005Z" fill="white"/>
<path d="M222.752 396.389C219.381 396.389 216.267 395.834 213.408 394.725C210.549 393.573 208.075 391.973 205.984 389.925C203.893 387.877 202.251 385.466 201.056 382.693C199.904 379.919 199.328 376.89 199.328 373.605C199.328 370.319 199.904 367.29 201.056 364.517C202.251 361.743 203.893 359.333 205.984 357.285C208.117 355.237 210.613 353.658 213.472 352.549C216.331 351.397 219.445 350.821 222.816 350.821C226.059 350.821 229.109 351.375 231.968 352.485C234.827 353.551 237.237 355.173 239.2 357.349L236.192 360.357C234.357 358.479 232.331 357.135 230.112 356.325C227.893 355.471 225.504 355.045 222.944 355.045C220.256 355.045 217.76 355.514 215.456 356.453C213.152 357.349 211.147 358.65 209.44 360.357C207.733 362.021 206.389 363.983 205.408 366.245C204.469 368.463 204 370.917 204 373.605C204 376.293 204.469 378.767 205.408 381.029C206.389 383.247 207.733 385.21 209.44 386.917C211.147 388.581 213.152 389.882 215.456 390.821C217.76 391.717 220.256 392.165 222.944 392.165C225.504 392.165 227.893 391.738 230.112 390.885C232.331 390.031 234.357 388.666 236.192 386.789L239.2 389.797C237.237 391.973 234.827 393.615 231.968 394.725C229.109 395.834 226.037 396.389 222.752 396.389Z" fill="white"/>
<defs>
<filter id="filter0_d_1_42" x="559" y="0.00469971" width="142" height="478" filterUnits="userSpaceOnUse" color-interpolation-filters="sRGB">
<feFlood flood-opacity="0" result="BackgroundImageFix"/>
<feColorMatrix in="SourceAlpha" type="matrix" values="0 0 0 0 0 0 0 0 0 0 0 0 0 0 0 0 0 0 127 0" result="hardAlpha"/>
<feOffset dx="10" dy="8"/>
<feGaussianBlur stdDeviation="2"/>
<feComposite in2="hardAlpha" operator="out"/>
<feColorMatrix type="matrix" values="0 0 0 0 0 0 0 0 0 0 0 0 0 0 0 0 0 0 0.25 0"/>
<feBlend mode="normal" in2="BackgroundImageFix" result="effect1_dropShadow_1_42"/>
<feBlend mode="normal" in="SourceGraphic" in2="effect1_dropShadow_1_42" result="shape"/>
</filter>
<filter id="filter1_d_1_42" x="154" y="0.00469971" width="142" height="478" filterUnits="userSpaceOnUse" color-interpolation-filters="sRGB">
<feFlood flood-opacity="0" result="BackgroundImageFix"/>
<feColorMatrix in="SourceAlpha" type="matrix" values="0 0 0 0 0 0 0 0 0 0 0 0 0 0 0 0 0 0 127 0" result="hardAlpha"/>
<feOffset dx="10" dy="8"/>
<feGaussianBlur stdDeviation="2"/>
<feComposite in2="hardAlpha" operator="out"/>
<feColorMatrix type="matrix" values="0 0 0 0 0 0 0 0 0 0 0 0 0 0 0 0 0 0 0.25 0"/>
<feBlend mode="normal" in2="BackgroundImageFix" result="effect1_dropShadow_1_42"/>
<feBlend mode="normal" in="SourceGraphic" in2="effect1_dropShadow_1_42" result="shape"/>
</filter>
</defs>
</svg>
